<svg xmlns="http://www.w3.org/2000/svg" xmlns:xlink="http://www.w3.org/1999/xlink" width="21" height="51" viewBox="0 0 21 51"><svg width="11" height="18" viewBox="0 0 11 18" id="facebook" y="0"><path fill="#838d8f" d="M9.5 6.18H6.95V4.52c0-.62.42-.77.71-.77h1.8V1.01L6.98 1C4.22 1 3.59 3.04 3.59 4.35v1.83H2v2.83h1.6V17h3.35V9h2.26z"></path></svg><svg width="18" height="18" viewBox="0 0 18 18" id="instagram" y="18"><path fill="#838d8f" d="M2.25 2A1.3 1.3 0 0 0 1 3.29v3.24h4.84a4.35 4.35 0 0 1 2.54-1.02c.95 0 1.8.47 2.55 1.02H16V3.29C16 2.61 15.39 2 14.66 2zm12.21 3.52h-2c-.28 0-.53-.2-.53-.44V3.45c0-.24.25-.42.54-.42h2c.28 0 .5.18.5.42v1.63c0 .24-.22.44-.5.44zm-3.53 4.19a2.6 2.6 0 0 0-2.55-2.64 2.6 2.6 0 0 0-2.54 2.64 2.6 2.6 0 0 0 2.54 2.65 2.6 2.6 0 0 0 2.55-2.65zm1.71-.07c0 2.33-1.85 4.2-4.13 4.2A4.17 4.17 0 0 1 4.5 8.66H1v7c0 .73.57 1.34 1.25 1.34h12.5c.68 0 1.25-.61 1.25-1.34v-7h-3.73c.34.32.37.65.37.98z"></path></svg><svg width="21" height="15" viewBox="0 0 21 15" id="twitter" y="36"><path fill="#838d8f" d="M15.95 3.28l-.03-.03a3.16 3.16 0 0 0-2.31-.83l-.03-.07h.02c.8-.18 1.28-.36 1.42-.56.05-.16-.01-.24-.19-.27-.4.05-.77.14-1.1.26.42-.26.58-.44.49-.53a2.2 2.2 0 0 0-1.34.61c.18-.28.24-.44.2-.46-.22.15-.42.3-.59.48-.35.38-.64.73-.86 1.05v.03a9.2 9.2 0 0 0-1.2 2.65l-.08.07-.02.01c-.34-.4-.74-.75-1.23-1.02-.57-.36-1.24-.7-2.02-1.03-.84-.42-1.7-.77-2.57-1.04 0 .93.47 1.68 1.41 2.22v.01c-.33 0-.65.05-.96.14.06.86.7 1.46 1.9 1.79v.02c-.47-.03-.86.13-1.17.46.4.75 1.1 1.1 2.12 1.08-.2.1-.36.2-.46.33-.19.19-.25.4-.19.66.22.38.62.55 1.2.53l.03.04-.02.01c-1 1-2.2 1.44-3.62 1.35h-.02c-.86 0-1.79-.4-2.78-1.19a8.57 8.57 0 0 0 3.98 3.02c1.89.6 3.78.64 5.66.13h.03a9 9 0 0 0 4.66-3.12c.59-.83.96-1.61 1.1-2.37.96.03 1.65-.23 2.08-.79l-.01-.02c-.32.11-.94.08-1.87-.1v-.1h.01c1.01-.11 1.6-.42 1.8-.94-.7.26-1.4.27-2.09.02a4.26 4.26 0 0 0-1.35-2.5z"></path></svg></svg>