<svg xmlns="http://www.w3.org/2000/svg" xmlns:xlink="http://www.w3.org/1999/xlink" width="18" height="36" viewBox="0 0 18 36"><svg width="18" height="18" viewBox="0 0 32 32" id="github" y="0"><title>github</title><path fill="#fff" d="M16 .395c-8.836 0-16 7.163-16 16 0 7.069 4.585 13.067 10.942 15.182.8.148 1.094-.347 1.094-.77 0-.381-.015-1.642-.022-2.979-4.452.968-5.391-1.888-5.391-1.888-.728-1.849-1.776-2.341-1.776-2.341-1.452-.993.11-.973.11-.973 1.606.113 2.452 1.649 2.452 1.649 1.427 2.446 3.743 1.739 4.656 1.33.143-1.034.558-1.74 1.016-2.14-3.554-.404-7.29-1.777-7.29-7.907 0-1.747.625-3.174 1.649-4.295-.166-.403-.714-2.03.155-4.234 0 0 1.344-.43 4.401 1.64a15.353 15.353 0 0 1 4.005-.539c1.359.006 2.729.184 4.008.539 3.054-2.07 4.395-1.64 4.395-1.64.871 2.204.323 3.831.157 4.234 1.026 1.12 1.647 2.548 1.647 4.295 0 6.145-3.743 7.498-7.306 7.895.574.497 1.085 1.47 1.085 2.963 0 2.141-.019 3.864-.019 4.391 0 .426.288.925 1.099.768C27.421 29.457 32 23.462 32 16.395c0-8.837-7.164-16-16-16z"></path></svg><svg width="18" height="18" viewBox="0 0 18 18" id="instagram" y="18"><path fill="#fff" d="M2.25 2A1.3 1.3 0 0 0 1 3.29v3.24h4.84a4.35 4.35 0 0 1 2.54-1.02c.95 0 1.8.47 2.55 1.02H16V3.29C16 2.61 15.39 2 14.66 2zm12.21 3.52h-2c-.28 0-.53-.2-.53-.44V3.45c0-.24.25-.42.54-.42h2c.28 0 .5.18.5.42v1.63c0 .24-.22.44-.5.44zm-3.53 4.19a2.6 2.6 0 0 0-2.55-2.64 2.6 2.6 0 0 0-2.54 2.64 2.6 2.6 0 0 0 2.54 2.65 2.6 2.6 0 0 0 2.55-2.65zm1.71-.07c0 2.33-1.85 4.2-4.13 4.2A4.17 4.17 0 0 1 4.5 8.66H1v7c0 .73.57 1.34 1.25 1.34h12.5c.68 0 1.25-.61 1.25-1.34v-7h-3.73c.34.32.37.65.37.98z"></path></svg></svg>