<svg xmlns="http://www.w3.org/2000/svg" xmlns:xlink="http://www.w3.org/1999/xlink" width="21" height="15" viewBox="0 0 21 15"><path id="yxb7a" transform="translate(-591 -1694)" fill="#838d8f" d="M606.95 1697.28l-.03-.03a3.16 3.16 0 0 0-2.31-.83l-.03-.07h.02c.8-.18 1.28-.36 1.42-.56.05-.16-.01-.24-.19-.27-.4.05-.77.14-1.1.26.42-.26.58-.44.49-.53a2.2 2.2 0 0 0-1.34.61c.18-.28.24-.44.2-.46-.22.15-.42.3-.59.48-.35.38-.64.73-.86 1.05v.03a9.2 9.2 0 0 0-1.2 2.65l-.08.07-.02.01c-.34-.4-.74-.75-1.23-1.02-.57-.36-1.24-.7-2.02-1.03-.84-.42-1.7-.77-2.57-1.04 0 .93.47 1.68 1.41 2.22v.01c-.33 0-.65.05-.96.14.06.86.7 1.46 1.9 1.79v.02c-.47-.03-.86.13-1.17.46.4.75 1.1 1.1 2.12 1.08-.2.1-.36.2-.46.33-.19.19-.25.4-.19.66.22.38.62.55 1.2.53l.03.04-.02.01c-1 1-2.2 1.44-3.62 1.35h-.02c-.86 0-1.79-.4-2.78-1.19a8.57 8.57 0 0 0 3.98 3.02c1.89.6 3.78.64 5.66.13h.03a9 9 0 0 0 4.66-3.12c.59-.83.96-1.61 1.1-2.37.96.03 1.65-.23 2.08-.79l-.01-.02c-.32.11-.94.08-1.87-.1v-.1h.01c1.01-.11 1.6-.42 1.8-.94-.7.26-1.4.27-2.09.02a4.26 4.26 0 0 0-1.35-2.5z"/></svg>